<?xml version="1.0" encoding="UTF-8" standalone="no"?>
<svg
   xmlns:dc="http://purl.org/dc/elements/1.1/"
   xmlns:cc="http://creativecommons.org/ns#"
   xmlns:rdf="http://www.w3.org/1999/02/22-rdf-syntax-ns#"
   xmlns:svg="http://www.w3.org/2000/svg"
   xmlns="http://www.w3.org/2000/svg"
   xmlns:xlink="http://www.w3.org/1999/xlink"
   version="1.1"
   id="svg2"
   height="16"
   width="16">
  <defs
     id="defs4">
    <linearGradient
       id="linearGradient3740">
      <stop
         id="stop3736"
         offset="0"
         style="stop-color:#cccccc;stop-opacity:1;" />
      <stop
         id="stop3738"
         offset="1"
         style="stop-color:#cccccc;stop-opacity:0;" />
    </linearGradient>
    <linearGradient
       id="linearGradient4517">
      <stop
         id="stop4519"
         offset="0"
         style="stop-color:#9ad51a;stop-opacity:1;" />
      <stop
         id="stop4521"
         offset="1"
         style="stop-color:#d4f292;stop-opacity:1;" />
    </linearGradient>
    <linearGradient
       id="linearGradient4441">
      <stop
         id="stop4443"
         offset="0"
         style="stop-color:#1b6e03;stop-opacity:1;" />
      <stop
         id="stop4445"
         offset="1"
         style="stop-color:#379f18;stop-opacity:1;" />
    </linearGradient>
    <clipPath
       clipPathUnits="userSpaceOnUse"
       id="clipPath3944">
      <path
         d="M 0,768 1024,768 1024,0 0,0 0,768 z"
         id="path3946" />
    </clipPath>
    <radialGradient
       gradientUnits="userSpaceOnUse"
       gradientTransform="matrix(1.2832803,-0.46250559,0.33906003,0.94077134,-356.29217,63.743648)"
       r="8.0000002"
       fy="1044.4963"
       fx="2.5970438"
       cy="1044.4963"
       cx="2.5970438"
       id="radialGradient4447"
       xlink:href="#linearGradient4441" />
    <linearGradient
       gradientUnits="userSpaceOnUse"
       y2="1039.0155"
       x2="22.494835"
       y1="1044.8051"
       x1="2.2097087"
       id="linearGradient4523"
       xlink:href="#linearGradient4517" />
    <linearGradient
       y2="1039.0155"
       x2="22.494835"
       y1="1044.8051"
       x1="2.2097087"
       gradientUnits="userSpaceOnUse"
       id="linearGradient4594"
       xlink:href="#linearGradient4517" />
    <radialGradient
       r="8.0000002"
       fy="1044.4963"
       fx="2.5970438"
       cy="1044.4963"
       cx="2.5970438"
       gradientTransform="matrix(1.2832803,-0.46250559,0.33906003,0.94077134,-356.29217,63.743648)"
       gradientUnits="userSpaceOnUse"
       id="radialGradient4596"
       xlink:href="#linearGradient4441" />
    <linearGradient
       gradientTransform="matrix(1.0661157,0,0,1.0218975,-0.15902655,-23.001235)"
       gradientUnits="userSpaceOnUse"
       y2="1051.0259"
       x2="2.7616138"
       y1="1036.9506"
       x1="11.491878"
       id="linearGradient3742"
       xlink:href="#linearGradient3740" />
  </defs>
  <metadata
     id="metadata7">
    <rdf:RDF>
      <cc:Work
         rdf:about="">
        <dc:format>image/svg+xml</dc:format>
        <dc:type
           rdf:resource="http://purl.org/dc/dcmitype/StillImage" />
        <dc:title></dc:title>
      </cc:Work>
    </rdf:RDF>
  </metadata>
  <g
     transform="translate(0,-1036.3622)"
     id="layer1">
    <path
       id="path26"
       d="m 10.867188,1036.459 -8.8813415,-0.011 c 0,0 -0.6497045,0.01 -0.8120184,0.173 -0.32825542,0.3288 -0.17828068,0.5527 -0.17796758,2.1148 6.4152e-4,3.1999 -0.009756,10.5902 0.074698,12.6118 0.0035,0.084 0.096414,0.3824 0.3270283,0.5342 0.2306139,0.1519 0.5989325,0.1572 0.7753032,0.1587 4.465102,0.038 12.372032,0 12.372032,0 0.292124,-0.2385 0.563082,-0.4855 0.443359,-0.8887 l -0.0957,-11.082 z m -0.689454,1.0058 v 2.3705 c 0,0 -0.04542,0.5203 0.155897,0.7225 0.175616,0.1765 0.535961,0.1703 0.813612,0.1816 1.02213,0.042 2.751195,0.048 2.751195,0.048 l 0.08789,10.1367 -0.05859,0.1192 -11.880859,-0.029 0.1171875,-13.4942 z m 1,0.6192 1.873047,1.6797 -1.873047,-0.047 z"
       style="color:#000000;font-style:normal;font-variant:normal;font-weight:normal;font-stretch:normal;font-size:medium;line-height:normal;font-family:sans-serif;font-variant-ligatures:normal;font-variant-position:normal;font-variant-caps:normal;font-variant-numeric:normal;font-variant-alternates:normal;font-feature-settings:normal;text-indent:0;text-align:start;text-decoration:none;text-decoration-line:none;text-decoration-style:solid;text-decoration-color:#000000;letter-spacing:normal;word-spacing:normal;text-transform:none;writing-mode:lr-tb;direction:ltr;text-orientation:mixed;dominant-baseline:auto;baseline-shift:baseline;text-anchor:start;white-space:normal;shape-padding:0;clip-rule:nonzero;display:inline;overflow:visible;visibility:visible;opacity:1;isolation:auto;mix-blend-mode:normal;color-interpolation:sRGB;color-interpolation-filters:linearRGB;solid-color:#000000;solid-opacity:1;vector-effect:none;fill:#b3b3b3;fill-opacity:1;fill-rule:evenodd;stroke:none;stroke-width:1px;stroke-linecap:butt;stroke-linejoin:miter;stroke-miterlimit:4;stroke-dasharray:none;stroke-dashoffset:0;stroke-opacity:1;color-rendering:auto;image-rendering:auto;shape-rendering:auto;text-rendering:auto;enable-background:accumulate" />
    <path
       id="path3734"
       d="m 2.4052766,1038.0215 7.407987,-0.091 -0.077305,3.018 3.44852,0.1763 0.0832,9.0977 -10.7674233,0.1801 z"
       style="fill:url(#linearGradient3742);fill-opacity:1;fill-rule:evenodd;stroke:none;stroke-width:1.04377246px;stroke-linecap:butt;stroke-linejoin:miter;stroke-opacity:1" />
    <g
       transform="matrix(0.82843867,0,0,0.82843867,0.08566201,180.45888)"
       id="g4590">
      <path
         style="fill:url(#linearGradient4594);fill-opacity:1;stroke:none"
         d="M 8,1049.0757 3.2864488,1044.3618 8,1039.6487 l 1.5713109,1.571 -3.1426221,3.1421 1.5712155,1.5714 4.7135527,-4.7132 -4.1060555,-4.1062 c -0.3352895,-0.3356 -0.8791314,-0.3356 -1.2147075,0 l -6.64108351,6.6412 c -0.33528965,0.3352 -0.33528965,0.8791 0,1.2147 l 6.64117911,6.6408 c 0.3355762,0.3356 0.879418,0.3356 1.2147075,0 l 6.6411799,-6.6408 c 0.335289,-0.3356 0.335289,-0.8795 0,-1.2147 L 14.284575,1042.7911 8,1049.0757 z"
         id="path4439" />
      <path
         id="path4333"
         d="M 8,1049.0757 3.2864488,1044.3618 8,1039.6487 l 1.5713109,1.571 -3.1426221,3.1421 1.5712155,1.5714 4.7135527,-4.7132 -4.1060555,-4.1062 c -0.3352895,-0.3356 -0.8791314,-0.3356 -1.2147075,0 l -6.64108351,6.6412 c -0.33528965,0.3352 -0.33528965,0.8791 0,1.2147 l 6.64117911,6.6408 c 0.3355762,0.3356 0.879418,0.3356 1.2147075,0 l 6.6411799,-6.6408 c 0.335289,-0.3356 0.335289,-0.8795 0,-1.2147 L 14.284575,1042.7911 8,1049.0757 z"
         style="fill:none;stroke:url(#radialGradient4596);stroke-width:1.20709002;stroke-opacity:1" />
    </g>
  </g>
</svg>
