<svg xmlns="http://www.w3.org/2000/svg" xmlns:xlink="http://www.w3.org/1999/xlink" height="16" width="16"><defs><linearGradient id="c"><stop offset="0" style="stop-color:#ccc;stop-opacity:1"/><stop offset="1" style="stop-color:#ccc;stop-opacity:0"/></linearGradient><linearGradient id="b"><stop offset="0" style="stop-color:#9ad51a;stop-opacity:1"/><stop offset="1" style="stop-color:#d4f292;stop-opacity:1"/></linearGradient><linearGradient id="a"><stop offset="0" style="stop-color:#1b6e03;stop-opacity:1"/><stop offset="1" style="stop-color:#379f18;stop-opacity:1"/></linearGradient><linearGradient y2="1039.015" x2="22.495" y1="1044.805" x1="2.21" gradientUnits="userSpaceOnUse" id="e" xlink:href="#b"/><linearGradient gradientTransform="matrix(1.06612 0 0 1.0219 -.159 -23.001)" gradientUnits="userSpaceOnUse" y2="1051.026" x2="2.762" y1="1036.951" x1="11.492" id="d" xlink:href="#c"/><radialGradient r="8" fy="1044.496" fx="2.597" cy="1044.496" cx="2.597" gradientTransform="matrix(1.28328 -.4625 .33906 .94077 -356.292 63.744)" gradientUnits="userSpaceOnUse" id="f" xlink:href="#a"/></defs><path d="m10.867 1036.459-8.881-.011s-.65.01-.812.173c-.328.329-.178.553-.178 2.115 0 3.2-.01 10.59.075 12.612a.822.822 0 0 0 .327.534c.23.152.599.157.775.159 4.465.038 12.372 0 12.372 0 .292-.239.563-.486.443-.89l-.095-11.081zm-.69 1.006v2.37s-.045.52.157.723c.175.176.536.17.813.181 1.022.042 2.751.048 2.751.048l.088 10.137-.058.12-11.881-.03.117-13.494zm1 .619 1.874 1.68-1.873-.047z" style="color:#000;font-style:normal;font-variant:normal;font-weight:400;font-stretch:normal;font-size:medium;line-height:normal;font-family:sans-serif;font-variant-ligatures:normal;font-variant-position:normal;font-variant-caps:normal;font-variant-numeric:normal;font-variant-alternates:normal;font-feature-settings:normal;text-indent:0;text-align:start;text-decoration:none;text-decoration-line:none;text-decoration-style:solid;text-decoration-color:#000;letter-spacing:normal;word-spacing:normal;text-transform:none;writing-mode:lr-tb;direction:ltr;text-orientation:mixed;dominant-baseline:auto;baseline-shift:baseline;text-anchor:start;white-space:normal;shape-padding:0;clip-rule:nonzero;display:inline;overflow:visible;visibility:visible;opacity:1;isolation:auto;mix-blend-mode:normal;color-interpolation:sRGB;color-interpolation-filters:linearRGB;solid-color:#000;solid-opacity:1;vector-effect:none;fill:#b3b3b3;fill-opacity:1;fill-rule:evenodd;stroke:none;stroke-width:1px;stroke-linecap:butt;stroke-linejoin:miter;stroke-miterlimit:4;stroke-dasharray:none;stroke-dashoffset:0;stroke-opacity:1;color-rendering:auto;image-rendering:auto;shape-rendering:auto;text-rendering:auto;enable-background:accumulate" transform="translate(0 -1036.362)"/><path d="m2.405 1038.022 7.408-.091-.077 3.018 3.448.176.084 9.098-10.768.18z" style="fill:url(#d);fill-opacity:1;fill-rule:evenodd;stroke:none;stroke-width:1.04377246px;stroke-linecap:butt;stroke-linejoin:miter;stroke-opacity:1" transform="translate(0 -1036.362)"/><path style="fill:url(#e);fill-opacity:1;stroke:none" d="m8 1049.076-4.714-4.714L8 1039.649l1.571 1.57-3.142 3.143 1.57 1.571 4.714-4.713-4.106-4.106a.859.859 0 0 0-1.214 0l-6.641 6.641a.86.86 0 0 0 0 1.215l6.64 6.64a.859.859 0 0 0 1.215 0l6.642-6.64a.86.86 0 0 0 0-1.215l-.964-.964L8 1049.076z" transform="matrix(.82844 0 0 .82844 .086 -855.903)"/><path d="m8 1049.076-4.714-4.714L8 1039.649l1.571 1.57-3.142 3.143 1.57 1.571 4.714-4.713-4.106-4.106a.859.859 0 0 0-1.214 0l-6.641 6.641a.86.86 0 0 0 0 1.215l6.64 6.64a.859.859 0 0 0 1.215 0l6.642-6.64a.86.86 0 0 0 0-1.215l-.964-.964L8 1049.076z" style="fill:none;stroke:url(#f);stroke-width:1.20709002;stroke-opacity:1" transform="matrix(.82844 0 0 .82844 .086 -855.903)"/></svg>